<svg width="28" height="28" viewBox="0 0 28 28" fill="none" xmlns="http://www.w3.org/2000/svg">
<path d="M22.2221 17.173C21.3265 16.9803 20.618 17.3961 19.9907 17.7593C19.3482 18.1335 18.1266 19.1245 17.4263 18.8709C13.8412 17.3947 10.4692 14.2567 9.00957 10.6572C8.7523 9.94199 9.73871 8.71258 10.1102 8.06252C10.4706 7.43326 10.8778 6.71806 10.6921 5.81575C10.5243 5.00492 8.35334 2.24254 7.58568 1.48715C7.07941 0.988175 6.56075 0.713739 6.02834 0.669386C4.02664 0.583451 1.79107 3.25435 1.39899 3.89332C0.416708 5.25579 0.422211 7.06873 1.41549 9.26699C3.80928 15.1715 12.863 24.0824 18.7897 26.5662C19.8834 27.0776 20.8836 27.334 21.7819 27.334C22.661 27.334 23.4438 27.0887 24.1165 26.6022C24.6242 26.3097 27.4046 23.9632 27.3316 21.9077C27.2876 21.3838 27.0138 20.8598 26.5213 20.3525C25.7716 19.5777 23.027 17.3421 22.2221 17.173Z" fill="#FC842D"/>
</svg>
