<svg width="24" height="24" viewBox="0 0 24 24" fill="none" xmlns="http://www.w3.org/2000/svg">
    <path fill-rule="evenodd" clip-rule="evenodd"
          d="M8.50186 22.7039L20.217 7.55392C20.8537 6.73694 21.0801 5.7924 20.8679 4.83065C20.684 3.95634 20.1463 3.12503 19.3398 2.49438L17.3731 0.932085C15.6611 -0.429547 13.5388 -0.286218 12.322 1.27608L11.0062 2.98313C10.8364 3.19669 10.8789 3.51202 11.0911 3.68402C11.0911 3.68402 14.416 6.34995 14.4868 6.40728C14.7132 6.62227 14.883 6.90893 14.9254 7.25293C14.9961 7.92658 14.5292 8.55723 13.8359 8.64322C13.5105 8.68622 13.1993 8.58589 12.9729 8.39956L9.47813 5.61897C9.30834 5.4914 9.05367 5.51864 8.91218 5.69063L0.606851 16.4404C0.0691979 17.114 -0.114736 17.9883 0.0691979 18.834L1.13036 23.4349C1.18695 23.6785 1.39918 23.8505 1.65386 23.8505L6.32295 23.7932C7.17188 23.7788 7.96421 23.3919 8.50186 22.7039ZM15.0396 21.271H22.6531C23.3959 21.271 24 21.8831 24 22.6355C24 23.3895 23.3959 24 22.6531 24H15.0396C14.2968 24 13.6926 23.3895 13.6926 22.6355C13.6926 21.8831 14.2968 21.271 15.0396 21.271Z"
          fill="#FC842D"/>
</svg>
