<svg width="62" height="63" viewBox="0 0 62 63" fill="none" xmlns="http://www.w3.org/2000/svg">
<path d="M11.9271 32.9477C5.71949 40.7451 16.4854 42.6392 19.1384 44.9131C21.7913 47.1869 25.6167 57.7991 31.8243 50.0016C38.032 42.2042 37.6986 33.2104 32.2041 28.5011C26.7096 23.7918 18.1348 25.1502 11.9271 32.9477Z" fill="#F5F2F0"/>
<ellipse rx="5.41203" ry="7.05804" transform="matrix(-0.209091 -0.995761 -0.92718 0.328808 44.7509 39.7422)" fill="#F5F2F0"/>
<ellipse rx="5.22808" ry="7.69061" transform="matrix(-0.524797 -0.863844 -0.791503 0.596768 41.5639 26.7485)" fill="#F5F2F0"/>
<ellipse rx="5.18903" ry="7.75784" transform="matrix(-0.861534 -0.494535 -0.507042 0.86789 32.3948 18.288)" fill="#F5F2F0"/>
<ellipse rx="5.33651" ry="7.14686" transform="matrix(-0.972528 -0.148248 -0.240315 0.984969 19.6569 18.0539)" fill="#F5F2F0"/>
</svg>
