<svg width="48" height="46" viewBox="0 0 48 46" fill="none" xmlns="http://www.w3.org/2000/svg">
<path d="M22.8135 36.8396C27.7731 42.4979 30.6252 34.754 32.6706 33.0883C34.716 31.4226 43.1133 30.0051 38.1537 24.3467C33.194 18.6884 26.4677 17.729 22.2316 21.1788C17.9956 24.6286 17.8538 31.1813 22.8135 36.8396Z" fill="#F5F2F0"/>
<ellipse rx="4.08575" ry="5.32838" transform="matrix(-1.01707 0.0287238 0.158727 0.970867 32.2668 13.3666)" fill="#F5F2F0"/>
<ellipse rx="3.94688" ry="5.80594" transform="matrix(-0.943385 0.362853 0.446539 0.884993 22.1858 13.9902)" fill="#F5F2F0"/>
<ellipse rx="3.9174" ry="5.85669" transform="matrix(-0.639828 0.759885 0.763916 0.653266 14.6698 19.6664)" fill="#F5F2F0"/>
<ellipse rx="4.02874" ry="5.39544" transform="matrix(-0.318792 0.930677 0.926552 0.411603 12.7861 29.0981)" fill="#F5F2F0"/>
</svg>
