<svg width="42" height="38" viewBox="0 0 42 38" fill="none" xmlns="http://www.w3.org/2000/svg">
<path d="M8.80245 26.3595C7.41906 33.7555 15.2698 31.2121 17.8434 31.7907C20.4169 32.3693 26.7209 38.095 28.1043 30.6991C29.4877 23.3031 26.0851 17.422 20.7551 16.2237C15.425 15.0254 10.1858 18.9635 8.80245 26.3595Z" fill="#F5F2F0"/>
<ellipse rx="4.08575" ry="5.32838" transform="matrix(-0.651131 -0.781849 -0.665183 0.724783 33.0988 19.2852)" fill="#F5F2F0"/>
<ellipse rx="3.94688" ry="5.80594" transform="matrix(-0.868279 -0.517427 -0.419802 0.897984 26.3783 11.7453)" fill="#F5F2F0"/>
<ellipse rx="3.9174" ry="5.85669" transform="matrix(-0.992819 -0.0334114 -0.0414843 1.00429 17.271 9.34414)" fill="#F5F2F0"/>
<ellipse rx="4.02874" ry="5.39544" transform="matrix(-0.928691 0.32453 0.249014 0.982806 8.69181 13.6921)" fill="#F5F2F0"/>
</svg>
