<svg width="56" height="63" viewBox="0 0 56 63" fill="none" xmlns="http://www.w3.org/2000/svg">
<path d="M10.438 25.2166C1.47289 29.5712 10.3669 35.9264 11.7787 39.1226C13.1904 42.3188 12.0609 53.5427 21.026 49.1881C29.9911 44.8335 33.5721 36.5767 30.6483 29.9572C27.7245 23.3376 19.4031 20.8621 10.438 25.2166Z" fill="#F5F2F0"/>
<ellipse rx="5.41203" ry="7.05804" transform="matrix(0.241161 -0.988484 -0.97829 -0.103568 37.1145 45.5126)" fill="#F5F2F0"/>
<ellipse rx="5.22808" ry="7.69061" transform="matrix(-0.100562 -1.00575 -0.971553 0.196707 39.8477 32.416)" fill="#F5F2F0"/>
<ellipse rx="5.18903" ry="7.75784" transform="matrix(-0.563715 -0.817943 -0.831968 0.564051 35.2282 20.8266)" fill="#F5F2F0"/>
<ellipse rx="5.33651" ry="7.14686" transform="matrix(-0.813297 -0.553475 -0.641895 0.784784 23.8388 15.1176)" fill="#F5F2F0"/>
</svg>
