<svg width="51" height="40" viewBox="0 0 51 40" fill="none" xmlns="http://www.w3.org/2000/svg">
<path d="M12.0294 33.0832C12.3906 43.0434 21.7974 37.4753 25.2915 37.4753C28.7856 37.4753 38.5962 43.0434 38.2351 33.0832C37.874 23.123 31.7679 16.5113 24.5314 16.5113C17.295 16.5113 11.6683 23.123 12.0294 33.0832Z" fill="#F5F2F0"/>
<ellipse rx="5.41203" ry="7.05804" transform="matrix(-0.806773 -0.619981 -0.490001 0.85304 41.3733 16.8812)" fill="#F5F2F0"/>
<ellipse rx="5.22808" ry="7.69061" transform="matrix(-0.960631 -0.314368 -0.212604 0.968199 30.4975 9.08967)" fill="#F5F2F0"/>
<ellipse rx="5.18903" ry="7.75784" transform="matrix(-0.975968 0.185178 0.179818 0.988933 18.0298 8.63282)" fill="#F5F2F0"/>
<ellipse rx="5.33651" ry="7.14686" transform="matrix(-0.834888 0.520336 0.458529 0.904249 8.20593 16.7445)" fill="#F5F2F0"/>
</svg>
