<svg width="96" height="96" viewBox="0 0 96 96" fill="none" xmlns="http://www.w3.org/2000/svg">
<rect width="96" height="96" rx="16" fill="#F5F2F0"/>
<g opacity="0.2">
<path d="M26.476 57.5887C27.3687 58.4814 28.6646 58.8782 30.0752 58.984C33.3232 59.2276 36.6186 62.523 36.8622 65.771C36.968 67.1816 37.3648 68.4775 38.2575 69.3702C41.5109 72.6236 46.8214 72.5878 50.119 69.2902C53.4165 65.9927 59.2007 52.6978 51.1745 44.6717C43.1484 36.6455 29.8535 42.4297 26.556 45.7272C23.2584 49.0248 23.2226 54.3354 26.476 57.5887Z" fill="#A29185"/>
<path d="M41.4946 33.4941C39.4444 37.018 35.5869 38.6169 32.8786 37.0656C30.1704 35.5142 29.637 31.3999 31.6872 27.8761C33.7375 24.3523 37.595 22.7533 40.3033 24.3047C43.0115 25.8561 43.5449 29.9703 41.4946 33.4941Z" fill="#A29185"/>
<path d="M68.0324 64.1687C64.5086 66.2189 60.3943 65.6855 58.8429 62.9773C57.2916 60.2691 58.8905 56.4116 62.4144 54.3613C65.9382 52.311 70.0524 52.8444 71.6038 55.5527C73.1552 58.2609 71.5562 62.1184 68.0324 64.1687Z" fill="#A29185"/>
<path d="M67.239 47.7787C63.9856 50.2398 59.8302 50.2127 57.9578 47.7182C56.0853 45.2237 57.2049 41.2064 60.4583 38.7453C63.7118 36.2842 67.8671 36.3113 69.7396 38.8058C71.612 41.3003 70.4925 45.3177 67.239 47.7787Z" fill="#A29185"/>
<path d="M57.301 35.471C54.8399 38.7245 50.8226 39.844 48.3281 37.9716C45.8335 36.0991 45.8064 31.9438 48.2675 28.6903C50.7286 25.4369 54.7459 24.3173 57.2404 26.1898C59.735 28.0622 59.7621 32.2176 57.301 35.471Z" fill="#A29185"/>
</g>
</svg>
