<svg width="24" height="28" viewBox="0 0 24 28" fill="none" xmlns="http://www.w3.org/2000/svg">
    <path fill-rule="evenodd" clip-rule="evenodd"
          d="M0.666626 11.757C0.666626 5.62381 5.7918 0.666626 11.9912 0.666626C18.2081 0.666626 23.3333 5.62381 23.3333 11.757C23.3333 14.8475 22.2093 17.7168 20.3593 20.1487C18.3184 22.8313 15.8028 25.1686 12.9713 27.0032C12.3233 27.4272 11.7385 27.4592 11.0272 27.0032C8.17961 25.1686 5.66408 22.8313 3.64063 20.1487C1.78927 17.7168 0.666626 14.8475 0.666626 11.757ZM8.25897 12.1023C8.25897 14.1569 9.93554 15.7729 11.9913 15.7729C14.0483 15.7729 15.741 14.1569 15.741 12.1023C15.741 10.0637 14.0483 8.36908 11.9913 8.36908C9.93554 8.36908 8.25897 10.0637 8.25897 12.1023Z"
          fill="#FC842D"/>
</svg>
