<svg width="21" height="17" viewBox="0 0 21 17" fill="none" xmlns="http://www.w3.org/2000/svg">
<path d="M4.92991 14.0611C5.0779 18.143 8.933 15.8611 10.3649 15.8611C11.7969 15.8611 15.8174 18.143 15.6694 14.0611C15.5215 9.97929 13.0191 7.26969 10.0534 7.26969C7.08781 7.26969 4.78192 9.97929 4.92991 14.0611Z" fill="#FC842D"/>
<ellipse rx="2.21795" ry="2.89251" transform="matrix(-0.806773 -0.619981 -0.490001 0.85304 16.9554 7.42132)" fill="#FC842D"/>
<ellipse rx="2.14256" ry="3.15175" transform="matrix(-0.960631 -0.314367 -0.212605 0.968199 12.4982 4.22822)" fill="#FC842D"/>
<ellipse rx="2.12655" ry="3.1793" transform="matrix(-0.975968 0.185178 0.179818 0.988933 7.38895 4.04101)" fill="#FC842D"/>
<ellipse rx="2.187" ry="2.92891" transform="matrix(-0.834888 0.520336 0.458529 0.904249 3.3628 7.36538)" fill="#FC842D"/>
</svg>
