<svg width="20" height="20" viewBox="0 0 20 20" fill="none" xmlns="http://www.w3.org/2000/svg">
<path d="M8.39348 1.04448C9.12222 -0.166434 10.8778 -0.166435 11.6065 1.04448L13.5403 4.2578C13.8021 4.69282 14.2292 5.00308 14.7238 5.11763L18.3774 5.96382C19.7543 6.2827 20.2967 7.95233 19.3703 9.0196L16.9118 11.8517C16.579 12.2351 16.4159 12.7371 16.4598 13.243L16.784 16.9793C16.9062 18.3873 15.486 19.4191 14.1846 18.8678L10.7314 17.4049C10.2639 17.2068 9.73608 17.2068 9.26858 17.4049L5.81536 18.8678C4.51404 19.4191 3.09376 18.3873 3.21596 16.9793L3.54022 13.243C3.58412 12.7371 3.42101 12.2351 3.08818 11.8517L0.629706 9.0196C-0.296748 7.95233 0.245748 6.2827 1.62259 5.96382L5.27622 5.11763C5.77085 5.00308 6.19788 4.69282 6.45968 4.2578L8.39348 1.04448Z" fill="#FC842D"/>
</svg>
