<svg width="79" height="64" viewBox="0 0 79 64" fill="none" xmlns="http://www.w3.org/2000/svg">
    <path d="M22.8733 53.1633C24.9647 67.3676 37.5538 57.9082 42.5567 57.3559C47.5597 56.8037 62.4871 63.2256 60.3957 49.0213C58.3043 34.817 48.5164 26.3152 38.1549 27.459C27.7934 28.6027 20.782 38.959 22.8733 53.1633Z"
          fill="white" fill-opacity="0.7"/>
    <ellipse rx="7.79624" ry="10.1674" transform="matrix(-0.869927 -0.527717 -0.393445 0.901653 62.3282 25.3268)"
             fill="white" fill-opacity="0.7"/>
    <ellipse rx="7.53125" ry="11.0786" transform="matrix(-0.989324 -0.207067 -0.105088 0.98568 45.5243 15.8894)"
             fill="white" fill-opacity="0.7"/>
    <ellipse rx="7.475" ry="11.1755" transform="matrix(-0.949758 0.291145 0.28724 0.963232 27.6002 17.2059)"
             fill="white" fill-opacity="0.7"/>
    <ellipse rx="7.68745" ry="10.2953" transform="matrix(-0.772755 0.6088 0.554977 0.848479 14.8161 30.3734)"
             fill="white" fill-opacity="0.7"/>
</svg>
