<svg width="86" height="88" viewBox="0 0 86 88" fill="none" xmlns="http://www.w3.org/2000/svg">
    <path d="M49.6227 70.1365C62.0823 77.2705 62.4255 61.5274 65.0832 57.2528C67.7408 52.9783 82.0147 45.2115 69.5551 38.0774C57.0955 30.9433 44.3626 33.3843 38.8584 42.2372C33.3543 51.09 37.1631 63.0024 49.6227 70.1365Z"
          fill="white" fill-opacity="0.7"/>
    <ellipse rx="7.79624" ry="10.1674" transform="matrix(-0.952494 0.35779 0.465712 0.866539 52.121 21.915)"
             fill="white" fill-opacity="0.7"/>
    <ellipse rx="7.53125" ry="11.0786" transform="matrix(-0.774193 0.649818 0.709977 0.691768 34.3167 29.2935)"
             fill="white" fill-opacity="0.7"/>
    <ellipse rx="7.475" ry="11.1755" transform="matrix(-0.358057 0.926607 0.934787 0.369454 24.2748 44.1985)"
             fill="white" fill-opacity="0.7"/>
    <ellipse rx="7.68745" ry="10.2953" transform="matrix(0.00106376 0.983761 1.01003 0.0880483 26.7262 62.3867)"
             fill="white" fill-opacity="0.7"/>
</svg>
