<svg width="27" height="25" viewBox="0 0 27 25" fill="none" xmlns="http://www.w3.org/2000/svg">
    <path d="M11.358 2.02898C12.3296 0.414433 14.6704 0.414432 15.642 2.02898L17.6828 5.42005C18.1715 6.2321 18.9686 6.81124 19.8919 7.02508L23.7477 7.91808C25.5834 8.34325 26.3068 10.5694 25.0715 11.9924L22.477 14.9812C21.8558 15.6969 21.5513 16.634 21.6332 17.5782L21.9754 21.5212C22.1384 23.3985 20.2447 24.7744 18.5096 24.0393L14.8653 22.4954C13.9926 22.1257 13.0074 22.1257 12.1347 22.4954L8.49044 24.0393C6.75535 24.7744 4.86165 23.3985 5.02457 21.5212L5.36677 17.5782C5.44872 16.634 5.14424 15.697 4.52296 14.9812L1.92849 11.9924C0.693222 10.5694 1.41655 8.34325 3.25233 7.91808L7.10807 7.02508C8.03138 6.81124 8.82851 6.2321 9.3172 5.42006L11.358 2.02898Z"
          fill="white" stroke="#FC842D"/>
</svg>
